# Blender 3.6.18
# www.blender.org
mtllib zed.triangulated.mtl
o Cube
v 4.000000 4.000000 -0.400000
v 4.000000 0.000000 -0.400000
v 4.000000 4.000000 0.400000
v 4.000000 0.000000 0.400000
v -4.000000 4.000000 -0.400000
v -4.000000 0.000000 -0.400000
v -4.000000 4.000000 0.400000
v -4.000000 0.000000 0.400000
vn -0.0000 1.0000 -0.0000
vn -0.0000 -0.0000 1.0000
vn -1.0000 -0.0000 -0.0000
vn -0.0000 -1.0000 -0.0000
vn 1.0000 -0.0000 -0.0000
vn -0.0000 -0.0000 -1.0000
vt 0.833247 0.000129
vt 0.000129 0.083441
vt 0.000129 0.000129
vt 0.833247 0.500000
vt 0.000129 0.500000
vt 0.833505 0.416945
vt 0.916816 0.833505
vt 0.833505 0.833505
vt 0.000129 0.583312
vt 0.833247 0.583312
vt 0.833505 0.000129
vt 0.916816 0.416688
vt 0.833505 0.416688
vt 0.833247 0.999871
vt 0.833247 0.083440
vt 0.916816 0.416945
vt 0.916816 0.000129
vt 0.000129 0.999871
s 0
usemtl Material
f 5/1/1 3/2/1 1/3/1
f 3/2/2 8/4/2 4/5/2
f 7/6/3 6/7/3 8/8/3
f 2/9/4 8/4/4 6/10/4
f 1/11/5 4/12/5 2/13/5
f 5/14/6 2/9/6 6/10/6
f 5/1/1 7/15/1 3/2/1
f 3/2/2 7/15/2 8/4/2
f 7/6/3 5/16/3 6/7/3
f 2/9/4 4/5/4 8/4/4
f 1/11/5 3/17/5 4/12/5
f 5/14/6 1/18/6 2/9/6
